<?xml version="1.0" encoding="iso-8859-1"?>
<!-- Generator: Adobe Illustrator 16.0.0, SVG Export Plug-In . SVG Version: 6.00 Build 0)  -->
<!DOCTYPE svg PUBLIC "-//W3C//DTD SVG 1.1//EN" "http://www.w3.org/Graphics/SVG/1.1/DTD/svg11.dtd">
<svg version="1.1" id="Capa_1" xmlns="http://www.w3.org/2000/svg" xmlns:xlink="http://www.w3.org/1999/xlink" x="0px" y="0px"
	 width="328.2px" height="328.201px" viewBox="0 0 328.2 328.201" style="enable-background:new 0 0 328.2 328.201;"
	 xml:space="preserve">
<g>
	<g>
		<path d="M164.101,34.191c-71.746,0-129.909,58.161-129.909,129.909s58.163,129.908,129.909,129.908
			c71.742,0,129.908-58.16,129.908-129.908S235.843,34.191,164.101,34.191z M225.077,188.624c-4.562,0-8.776-1.362-12.37-3.63
			c-11.061,2.936-22.814,4.878-35.351,5.572c0.678,6.229,1.485,12.447,2.392,18.62c6.157,4.174,10.201,11.221,10.201,19.211
			c0,12.811-10.388,23.198-23.198,23.198s-23.198-10.388-23.198-23.198c0-5.298,1.846-10.118,4.831-14.022
			c-1.163-7.855-2.211-15.768-3.04-23.721l-0.072-0.689c-12.593-1.123-23.592-3.086-31.91-4.893
			c-3.56,2.221-7.726,3.557-12.233,3.557c-12.811,0-23.198-10.387-23.198-23.197c0-12.811,10.388-23.198,23.198-23.198
			c8.707,0,16.205,4.852,20.171,11.951c5.885,1.235,13.256,2.54,21.611,3.49c-0.709-16.373-0.541-29.805-0.191-39.201
			c-3.987-4.168-6.468-9.784-6.468-16.008c0-12.811,10.388-23.198,23.198-23.198s23.198,10.387,23.198,23.198
			c0,7.021-3.185,13.235-8.104,17.487c-0.32,9.056-0.466,22.297,0.29,38.471l0.021,0.375c10.802-0.525,20.785-2.141,30.055-4.624
			c3.966-7.089,11.464-11.936,20.163-11.936c12.811,0,23.198,10.388,23.198,23.198C248.275,178.236,237.889,188.624,225.077,188.624
			z"/>
		<path d="M221.894,154.111c-51.264,21.97-115.882,1.755-116.534,1.548c-5.572-1.794-11.542,1.287-13.328,6.861
			c-1.789,5.571,1.271,11.537,6.845,13.328c1.877,0.605,31.017,9.776,67.114,9.776c20.417,0,43.062-2.937,64.25-12.019
			c5.391-2.305,7.881-8.539,5.571-13.924C233.508,154.295,227.273,151.799,221.894,154.111z"/>
		<path d="M169.656,158.681c-1.481-31.656,0.435-52.193,0.466-52.52c0.575-5.828-3.687-11.014-9.518-11.586
			c-5.81-0.601-11.011,3.679-11.591,9.507c-0.137,1.377-2.082,22.03-0.668,53.919C155.043,158.57,162.233,158.854,169.656,158.681z"
			/>
		<path d="M172.11,190.452c-2.34,0.072-4.681,0.129-6.97,0.129c-4.952,0-9.763-0.181-14.408-0.466
			c1.305,12.536,3.133,26.01,5.696,40.177c0.927,5.132,5.391,8.721,10.421,8.721c0.632,0,1.264-0.058,1.9-0.166
			c5.763-1.046,9.595-6.565,8.549-12.324C175.011,213.909,173.333,201.792,172.11,190.452z"/>
		<path d="M164.101,0C73.615,0,0,73.615,0,164.1c0,90.487,73.615,164.1,164.101,164.1c90.487,0,164.1-73.612,164.1-164.1
			C328.2,73.615,254.588,0,164.101,0z M164.101,306.99c-78.788,0-142.891-64.104-142.891-142.89
			c0-78.788,64.103-142.891,142.891-142.891c78.784,0,142.89,64.103,142.89,142.891C306.99,242.885,242.885,306.99,164.101,306.99z"
			/>
	</g>
</g>
<g>
</g>
<g>
</g>
<g>
</g>
<g>
</g>
<g>
</g>
<g>
</g>
<g>
</g>
<g>
</g>
<g>
</g>
<g>
</g>
<g>
</g>
<g>
</g>
<g>
</g>
<g>
</g>
<g>
</g>
</svg>
